<?xml version="1.0" encoding="UTF-8" standalone="no"?>
<!-- Created with Inkscape (http://www.inkscape.org/) -->

<svg
   xmlns:dc="http://purl.org/dc/elements/1.1/"
   xmlns:cc="http://creativecommons.org/ns#"
   xmlns:rdf="http://www.w3.org/1999/02/22-rdf-syntax-ns#"
   xmlns:svg="http://www.w3.org/2000/svg"
   xmlns="http://www.w3.org/2000/svg"
   xmlns:sodipodi="http://sodipodi.sourceforge.net/DTD/sodipodi-0.dtd"
   xmlns:inkscape="http://www.inkscape.org/namespaces/inkscape"
   width="224"
   height="224"
   id="svg2951"
   version="1.1"
   inkscape:version="0.92.3 (2405546, 2018-03-11)"
   sodipodi:docname="start-here.svg"
   inkscape:export-filename="/home/epi/mojopahit/icons/hicolor/256x256/apps/fedora-logo-icon.png"
   inkscape:export-xdpi="109.71429"
   inkscape:export-ydpi="109.71429">
  <defs
     id="defs2953">
    <inkscape:perspective
       sodipodi:type="inkscape:persp3d"
       inkscape:vp_x="0 : 526.18109 : 1"
       inkscape:vp_y="0 : 1000 : 0"
       inkscape:vp_z="744.09448 : 526.18109 : 1"
       inkscape:persp3d-origin="372.04724 : 350.78739 : 1"
       id="perspective2959" />
    <inkscape:perspective
       id="perspective2943"
       inkscape:persp3d-origin="0.5 : 0.33333333 : 1"
       inkscape:vp_z="1 : 0.5 : 1"
       inkscape:vp_y="0 : 1000 : 0"
       inkscape:vp_x="0 : 0.5 : 1"
       sodipodi:type="inkscape:persp3d" />
  </defs>
  <sodipodi:namedview
     id="base"
     pagecolor="#ffffff"
     bordercolor="#666666"
     borderopacity="1.0"
     inkscape:pageopacity="0.0"
     inkscape:pageshadow="2"
     inkscape:zoom="0.98994949"
     inkscape:cx="14.194907"
     inkscape:cy="137.88007"
     inkscape:document-units="px"
     inkscape:current-layer="layer1"
     showgrid="false"
     inkscape:window-width="1366"
     inkscape:window-height="703"
     inkscape:window-x="0"
     inkscape:window-y="0"
     inkscape:window-maximized="1" />
  <metadata
     id="metadata2956">
    <rdf:RDF>
      <cc:Work
         rdf:about="">
        <dc:format>image/svg+xml</dc:format>
        <dc:type
           rdf:resource="http://purl.org/dc/dcmitype/StillImage" />
        <dc:title />
      </cc:Work>
    </rdf:RDF>
  </metadata>
  <g
     inkscape:label="Layer 1"
     inkscape:groupmode="layer"
     id="layer1"
     transform="translate(-373.71429,-334.64487)">
    <g
       id="g11328"
       transform="matrix(1.8680254,0,0,1.8680254,-911.5585,147.87472)"
       style="opacity:0.71600001" />
    <g
       transform="matrix(1.8699359,0,0,1.8699359,328.8066,176.81761)"
       id="g861">
      <path
         sodipodi:nodetypes="ccccsccccccccccsccccccccccccccccccccc"
         inkscape:connector-curvature="0"
         id="path1212"
         d="m 96.628314,200.67077 39.830646,-41.07035 c 1.30164,-1.34224 2.16656,-3.04703 2.48097,-4.89014 l 4.73408,-27.75955 c 0.62148,-3.64889 -0.98933,-7.3174 -4.09638,-9.32911 -3.10703,-2.01171 -7.11349,-1.98023 -10.18853,0.0801 l -12.53566,8.4031 c 0.12004,-2.18916 -0.54047,-4.34992 -1.86399,-6.09782 L 91.287038,88.778904 C 89.578095,86.527829 86.934775,85.1803 84.109157,85.119695 v 5.29e-4 c -2.965159,-0.06349 -5.781384,1.296969 -7.57473,3.659209 L 52.832021,120.0075 c -1.324584,1.74603 -1.987074,3.90522 -1.869652,6.09368 l -12.530006,-8.39897 c -3.075041,-2.06029 -7.081494,-2.09177 -10.188522,-0.0801 -3.107055,2.01171 -4.717865,5.68023 -4.096385,9.32912 l 4.734084,27.75954 c 0.314404,1.84312 1.179327,3.54791 2.480971,4.89015 l 39.83064,41.07035 c 2.859591,2.94138 7.313481,3.65107 12.722225,1.74408 5.406576,1.90215 9.855015,1.19251 12.712938,-1.74461 z M 83.91072,109.69495 97.229289,127.24272 83.91072,165.30293 70.592177,127.24272 Z m -37.881402,35.39629 3.097504,2.07636 2.803948,7.03884 -5.274601,-5.43894 z m 75.762832,0 -0.62685,3.67626 -5.2746,5.43894 2.80395,-7.03884 z"
         style="color:#000000;font-style:normal;font-variant:normal;font-weight:normal;font-stretch:normal;font-size:medium;line-height:normal;font-family:sans-serif;font-variant-ligatures:normal;font-variant-position:normal;font-variant-caps:normal;font-variant-numeric:normal;font-variant-alternates:normal;font-feature-settings:normal;text-indent:0;text-align:start;text-decoration:none;text-decoration-line:none;text-decoration-style:solid;text-decoration-color:#000000;letter-spacing:normal;word-spacing:normal;text-transform:none;writing-mode:lr-tb;direction:ltr;text-orientation:mixed;dominant-baseline:auto;baseline-shift:baseline;text-anchor:start;white-space:normal;shape-padding:0;clip-rule:nonzero;display:inline;overflow:visible;visibility:visible;opacity:1;isolation:auto;mix-blend-mode:normal;color-interpolation:sRGB;color-interpolation-filters:linearRGB;solid-color:#000000;solid-opacity:1;vector-effect:none;fill:#1258a1;fill-opacity:1;fill-rule:nonzero;stroke:none;stroke-width:18.52083397;stroke-linecap:round;stroke-linejoin:round;stroke-miterlimit:4;stroke-dasharray:none;stroke-dashoffset:0;stroke-opacity:1;color-rendering:auto;image-rendering:auto;shape-rendering:auto;text-rendering:auto;enable-background:accumulate" />
      <path
         sodipodi:nodetypes="ccccc"
         style="fill:#60bded;fill-opacity:1;stroke:none;stroke-width:0.26458332px;stroke-linecap:butt;stroke-linejoin:miter;stroke-opacity:1"
         d="M 83.910746,94.378125 107.61315,125.60609 83.910746,193.33941 60.208313,125.60609 Z"
         id="path1192"
         inkscape:connector-curvature="0" />
      <path
         inkscape:connector-curvature="0"
         id="path1198"
         d="m 134.54538,125.39407 -4.734,27.7599 -39.830907,41.07034 21.173357,-53.15039 z"
         style="fill:#3daee9;fill-opacity:1;stroke:none;stroke-width:0.1649143px;stroke-linecap:butt;stroke-linejoin:miter;stroke-opacity:1"
         sodipodi:nodetypes="ccccc" />
      <path
         sodipodi:nodetypes="ccccc"
         style="fill:#178fce;fill-opacity:1;stroke:none;stroke-width:0.1649143px;stroke-linecap:butt;stroke-linejoin:miter;stroke-opacity:1"
         d="m 33.276083,125.39407 4.734005,27.7599 39.830905,41.07034 -21.173361,-53.15039 z"
         id="path1200"
         inkscape:connector-curvature="0" />
      <path
         inkscape:connector-curvature="0"
         id="path1221"
         d="m 83.910746,151.82129 9.944074,13.10135 -9.944074,28.41677 -9.9441,-28.41677 z"
         style="fill:#e7f4fc;fill-opacity:1;stroke:none;stroke-width:0.111003px;stroke-linecap:butt;stroke-linejoin:miter;stroke-opacity:1"
         sodipodi:nodetypes="ccccc" />
      <path
         sodipodi:nodetypes="ccccc"
         style="fill:#bee4f8;fill-opacity:1;stroke:none;stroke-width:0.08245715px;stroke-linecap:butt;stroke-linejoin:miter;stroke-opacity:1"
         d="m 112.26291,159.80919 -2.36699,13.87993 -19.915447,20.53519 10.586667,-26.5752 z"
         id="path1223"
         inkscape:connector-curvature="0" />
      <path
         inkscape:connector-curvature="0"
         id="path1225"
         d="m 55.558525,159.80919 2.367016,13.87993 19.915452,20.53519 -10.586667,-26.5752 z"
         style="fill:#70c3ef;fill-opacity:1;stroke:none;stroke-width:0.08245715px;stroke-linecap:butt;stroke-linejoin:miter;stroke-opacity:1"
         sodipodi:nodetypes="ccccc" />
    </g>
  </g>
</svg>
