<?xml version="1.0" encoding="UTF-8" standalone="no"?>
<!-- Created with Inkscape (http://www.inkscape.org/) -->

<svg
   xmlns:dc="http://purl.org/dc/elements/1.1/"
   xmlns:cc="http://creativecommons.org/ns#"
   xmlns:rdf="http://www.w3.org/1999/02/22-rdf-syntax-ns#"
   xmlns:svg="http://www.w3.org/2000/svg"
   xmlns="http://www.w3.org/2000/svg"
   xmlns:xlink="http://www.w3.org/1999/xlink"
   xmlns:sodipodi="http://sodipodi.sourceforge.net/DTD/sodipodi-0.dtd"
   xmlns:inkscape="http://www.inkscape.org/namespaces/inkscape"
   version="1.1"
   width="500"
   height="96.587379"
   id="svg2855"
   inkscape:version="0.92.3 (2405546, 2018-03-11)"
   sodipodi:docname="majapahit_lightbackground.svg">
  <metadata
     id="metadata14">
    <rdf:RDF>
      <cc:Work
         rdf:about="">
        <dc:format>image/svg+xml</dc:format>
        <dc:type
           rdf:resource="http://purl.org/dc/dcmitype/StillImage" />
        <dc:title />
      </cc:Work>
    </rdf:RDF>
  </metadata>
  <sodipodi:namedview
     pagecolor="#ffffff"
     bordercolor="#666666"
     borderopacity="1"
     objecttolerance="10"
     gridtolerance="10"
     guidetolerance="10"
     inkscape:pageopacity="0"
     inkscape:pageshadow="2"
     inkscape:window-width="1920"
     inkscape:window-height="1016"
     id="namedview12"
     showgrid="false"
     fit-margin-top="0"
     fit-margin-left="0"
     fit-margin-right="0"
     fit-margin-bottom="0"
     inkscape:zoom="0.76186915"
     inkscape:cx="-68.1902"
     inkscape:cy="140.10057"
     inkscape:window-x="0"
     inkscape:window-y="27"
     inkscape:window-maximized="1"
     inkscape:current-layer="svg2855"
     inkscape:snap-global="false" />
  <defs
     id="defs2857">
    <filter
       inkscape:collect="always"
       style="color-interpolation-filters:sRGB"
       id="filter2827"
       x="-0.035747003"
       width="1.071494"
       y="-0.036256604"
       height="1.0725132">
      <feGaussianBlur
         inkscape:collect="always"
         stdDeviation="3.795849"
         id="feGaussianBlur2829" />
    </filter>
    <filter
       inkscape:collect="always"
       style="color-interpolation-filters:sRGB"
       id="filter2788"
       x="-0.0073431092"
       width="1.0146862"
       y="-0.032803476"
       height="1.065607">
      <feGaussianBlur
         inkscape:collect="always"
         stdDeviation="0.17466995"
         id="feGaussianBlur2790" />
    </filter>
    <linearGradient
       inkscape:collect="always"
       xlink:href="#linearGradient2726"
       id="linearGradient2620"
       gradientUnits="userSpaceOnUse"
       gradientTransform="matrix(46.410652,0,0,46.410652,-7477.6074,18568.134)"
       x1="165.58189"
       y1="-395.49738"
       x2="180.21397"
       y2="-395.49738" />
    <linearGradient
       id="linearGradient2726"
       inkscape:collect="always">
      <stop
         style="stop-color:#178fce;stop-opacity:1"
         offset="0"
         id="stop2722" />
      <stop
         style="stop-color:#60bced;stop-opacity:1"
         offset="1"
         id="stop2724" />
    </linearGradient>
    <linearGradient
       inkscape:collect="always"
       xlink:href="#linearGradient2726"
       id="linearGradient934"
       gradientUnits="userSpaceOnUse"
       gradientTransform="matrix(46.410652,0,0,46.410652,-7477.6074,18568.134)"
       x1="165.58189"
       y1="-395.49738"
       x2="180.21397"
       y2="-395.49738" />
    <linearGradient
       inkscape:collect="always"
       xlink:href="#linearGradient2726"
       id="linearGradient936"
       gradientUnits="userSpaceOnUse"
       gradientTransform="matrix(46.410652,0,0,46.410652,-7477.6074,18568.134)"
       x1="165.58189"
       y1="-395.49738"
       x2="180.21397"
       y2="-395.49738" />
    <linearGradient
       inkscape:collect="always"
       xlink:href="#linearGradient2726"
       id="linearGradient938"
       gradientUnits="userSpaceOnUse"
       gradientTransform="matrix(46.410652,0,0,46.410652,-7477.6074,18568.134)"
       x1="165.58189"
       y1="-395.49738"
       x2="180.21397"
       y2="-395.49738" />
    <linearGradient
       inkscape:collect="always"
       xlink:href="#linearGradient2726"
       id="linearGradient940"
       gradientUnits="userSpaceOnUse"
       gradientTransform="matrix(46.410652,0,0,46.410652,-7477.6074,18568.134)"
       x1="165.58189"
       y1="-395.49738"
       x2="180.21397"
       y2="-395.49738" />
    <linearGradient
       inkscape:collect="always"
       xlink:href="#linearGradient2726"
       id="linearGradient942"
       gradientUnits="userSpaceOnUse"
       gradientTransform="matrix(46.410652,0,0,46.410652,-7477.6074,18568.134)"
       x1="165.58189"
       y1="-395.49738"
       x2="180.21397"
       y2="-395.49738" />
    <linearGradient
       inkscape:collect="always"
       xlink:href="#linearGradient2726"
       id="linearGradient944"
       gradientUnits="userSpaceOnUse"
       gradientTransform="matrix(46.410652,0,0,46.410652,-7477.6074,18568.134)"
       x1="165.58189"
       y1="-395.49738"
       x2="180.21397"
       y2="-395.49738" />
    <linearGradient
       inkscape:collect="always"
       xlink:href="#linearGradient2726"
       id="linearGradient946"
       gradientUnits="userSpaceOnUse"
       gradientTransform="matrix(46.410652,0,0,46.410652,-7477.6074,18568.134)"
       x1="165.58189"
       y1="-395.49738"
       x2="180.21397"
       y2="-395.49738" />
    <linearGradient
       inkscape:collect="always"
       xlink:href="#linearGradient2726"
       id="linearGradient948"
       gradientUnits="userSpaceOnUse"
       gradientTransform="matrix(46.410652,0,0,46.410652,-7477.6074,18568.134)"
       x1="165.58189"
       y1="-395.49738"
       x2="180.21397"
       y2="-395.49738" />
    <linearGradient
       inkscape:collect="always"
       xlink:href="#linearGradient2726"
       id="linearGradient950"
       gradientUnits="userSpaceOnUse"
       gradientTransform="matrix(46.410652,0,0,46.410652,-7477.6074,18568.134)"
       x1="165.58189"
       y1="-395.49738"
       x2="180.21397"
       y2="-395.49738" />
  </defs>
  <g
     transform="matrix(0.55079421,0,0,0.55079421,-8.2798354e-6,-66.018135)"
     id="g873"
     style="opacity:1">
    <path
       style="opacity:0.8;fill:#000000;fill-opacity:1;stroke:none;stroke-width:0.66583061px;stroke-linecap:butt;stroke-linejoin:miter;stroke-opacity:1;filter:url(#filter2827)"
       d="m 2560,1210.377 -59.6484,78.5859 59.6484,170.4512 59.6484,-170.4512 z m -127.4238,78.0527 11.914,69.8574 50.1172,51.6777 50.1172,51.6778 -26.6406,-66.877 -26.6426,-66.8789 z m 254.8476,0 -58.8652,39.457 -26.6426,66.8789 -26.6406,66.877 50.1172,-51.6778 50.1172,-51.6777 z"
       transform="matrix(0.59489059,0,0,0.59489059,-1441.6972,-594.76252)"
       id="path2666"
       inkscape:connector-curvature="0" />
    <path
       inkscape:connector-curvature="0"
       id="path1192"
       d="M 82.652139,121.34803 118.13598,168.09808 82.652139,269.49874 47.168232,168.09808 Z"
       style="fill:#60bded;fill-opacity:1;stroke:none;stroke-width:0.39609638px;stroke-linecap:butt;stroke-linejoin:miter;stroke-opacity:1"
       sodipodi:nodetypes="ccccc" />
    <path
       sodipodi:nodetypes="ccccc"
       style="fill:#3daee9;fill-opacity:1;stroke:none;stroke-width:0.24688616px;stroke-linecap:butt;stroke-linejoin:miter;stroke-opacity:1"
       d="m 158.45508,167.78067 -7.08706,41.55817 -59.629153,61.48465 31.697723,-79.56918 z"
       id="path1198"
       inkscape:connector-curvature="0" />
    <path
       inkscape:connector-curvature="0"
       id="path1200"
       d="m 6.8491523,167.78067 7.0870637,41.55817 59.62915,61.48465 -31.697727,-79.56918 z"
       style="fill:#178fce;fill-opacity:1;stroke:none;stroke-width:0.24688616px;stroke-linecap:butt;stroke-linejoin:miter;stroke-opacity:1"
       sodipodi:nodetypes="ccccc" />
    <path
       sodipodi:nodetypes="ccccc"
       style="fill:#e7f4fc;fill-opacity:1;stroke:none;stroke-width:0.16617784px;stroke-linecap:butt;stroke-linejoin:miter;stroke-opacity:1"
       d="m 82.652139,207.34374 14.88685,19.61347 -14.88685,42.54153 -14.886894,-42.54153 z"
       id="path1221"
       inkscape:connector-curvature="0" />
    <path
       inkscape:connector-curvature="0"
       id="path1223"
       d="m 125.09695,219.30208 -3.54353,20.77905 -29.814553,30.74236 15.848853,-39.7846 z"
       style="fill:#bee4f8;fill-opacity:1;stroke:none;stroke-width:0.12344308px;stroke-linecap:butt;stroke-linejoin:miter;stroke-opacity:1"
       sodipodi:nodetypes="ccccc" />
    <path
       sodipodi:nodetypes="ccccc"
       style="fill:#70c3ef;fill-opacity:1;stroke:none;stroke-width:0.12344308px;stroke-linecap:butt;stroke-linejoin:miter;stroke-opacity:1"
       d="m 40.207237,219.30208 3.543554,20.77905 29.814575,30.74236 -15.848852,-39.7846 z"
       id="path1225"
       inkscape:connector-curvature="0" />
    <g
       id="text2598"
       style="font-style:normal;font-variant:normal;font-weight:normal;font-stretch:normal;font-size:13.22916603px;line-height:1.25;font-family:Cantarell;-inkscape-font-specification:'Cantarell, Normal';font-variant-ligatures:normal;font-variant-caps:normal;font-variant-numeric:normal;font-feature-settings:normal;text-align:start;letter-spacing:0px;word-spacing:0px;writing-mode:lr-tb;text-anchor:start;opacity:0.54000005;vector-effect:none;fill:#000000;fill-opacity:1;stroke:none;stroke-width:0.51050711;stroke-linecap:butt;stroke-linejoin:miter;stroke-miterlimit:4;stroke-dasharray:none;stroke-dashoffset:0;stroke-opacity:1;filter:url(#filter2788)"
       transform="matrix(12.279485,0,0,12.279485,-7554.3695,217.16564)"
       aria-label="majapahit">
      <path
         inkscape:connector-curvature="0"
         id="path911"
         style="font-style:normal;font-variant:normal;font-weight:normal;font-stretch:normal;font-size:13.22916603px;font-family:Cantarell;-inkscape-font-specification:'Cantarell, Normal';font-variant-ligatures:normal;font-variant-caps:normal;font-variant-numeric:normal;font-feature-settings:normal;text-align:start;writing-mode:lr-tb;text-anchor:start;vector-effect:none;fill:#000000;fill-opacity:1;stroke:none;stroke-width:0.51050711;stroke-linecap:butt;stroke-linejoin:miter;stroke-miterlimit:4;stroke-dasharray:none;stroke-dashoffset:0;stroke-opacity:1"
         d="m 631.62121,2.9342632 h 1.05834 v -4.9873956 c 0.47625,-0.3836458 1.0451,-0.5953124 1.65364,-0.5953124 1.01865,0 1.57427,0.5820833 1.57427,1.6139582 v 3.9687498 h 1.05834 v -4.1804164 c 0,-0.2645834 -0.0265,-0.5027083 -0.0926,-0.7276042 0.48948,-0.4365624 1.09802,-0.6746874 1.74625,-0.6746874 1.01865,0 1.57427,0.5820833 1.57427,1.6139582 v 3.9687498 h 1.05834 v -4.1804164 c 0,-1.4155208 -0.92604,-2.3283333 -2.34157,-2.3283333 -0.84666,0 -1.6801,0.3439584 -2.32833,0.9525 -0.39687,-0.6085416 -1.07156,-0.9525 -1.94469,-0.9525 -0.7276,0 -1.44198,0.2513542 -2.03729,0.6879167 l -0.23812,-0.555625 h -0.74084 z" />
      <path
         inkscape:connector-curvature="0"
         id="path913"
         style="font-style:normal;font-variant:normal;font-weight:normal;font-stretch:normal;font-size:13.22916603px;font-family:Cantarell;-inkscape-font-specification:'Cantarell, Normal';font-variant-ligatures:normal;font-variant-caps:normal;font-variant-numeric:normal;font-feature-settings:normal;text-align:start;writing-mode:lr-tb;text-anchor:start;vector-effect:none;fill:#000000;fill-opacity:1;stroke:none;stroke-width:0.51050711;stroke-linecap:butt;stroke-linejoin:miter;stroke-miterlimit:4;stroke-dasharray:none;stroke-dashoffset:0;stroke-opacity:1"
         d="m 645.03187,3.0665549 c 0.80698,0 1.49489,-0.2645833 2.01083,-0.7276041 l 0.25136,0.5953124 h 0.74083 v -4.1407289 c 0,-1.5213541 -0.89958,-2.3680208 -2.56646,-2.3680208 -0.83344,0 -1.73302,0.2248959 -2.42094,0.6085417 l 0.26459,0.7805208 c 0.66145,-0.2910417 1.32291,-0.4365625 1.94468,-0.4365625 1.13771,0 1.7198,0.47625 1.7198,1.4155208 v 0.42333327 c -2.8575,0.0264583 -4.10105,0.62177081 -4.10105,1.98437493 0,1.1377083 0.84667,1.8653124 2.15636,1.8653124 z M 643.93385,1.08218 c 0,-0.79374998 0.89958,-1.12447913 3.04271,-1.13770829 V 1.5055133 c -0.39688,0.396875 -0.97896,0.635 -1.64042,0.635 -0.84667,0 -1.40229,-0.4233333 -1.40229,-1.0583333 z" />
      <path
         inkscape:connector-curvature="0"
         id="path915"
         style="font-style:normal;font-variant:normal;font-weight:normal;font-stretch:normal;font-size:13.22916603px;font-family:Cantarell;-inkscape-font-specification:'Cantarell, Normal';font-variant-ligatures:normal;font-variant-caps:normal;font-variant-numeric:normal;font-feature-settings:normal;text-align:start;writing-mode:lr-tb;text-anchor:start;vector-effect:none;fill:#000000;fill-opacity:1;stroke:none;stroke-width:0.51050711;stroke-linecap:butt;stroke-linejoin:miter;stroke-miterlimit:4;stroke-dasharray:none;stroke-dashoffset:0;stroke-opacity:1"
         d="m 650.71669,-4.9370906 c 0.47625,0 0.75406,-0.2778124 0.75406,-0.7540624 0,-0.47625 -0.27781,-0.7540625 -0.75406,-0.7540625 -0.47625,0 -0.75406,0.2778125 -0.75406,0.7540625 0,0.47625 0.27781,0.7540624 0.75406,0.7540624 z m -1.37583,10.8743745 c 1.20385,-0.5291666 1.905,-1.5345832 1.905,-2.6987499 v -6.6807288 h -1.05834 V 3.397284 c 0,0.7408333 -0.47625,1.4948958 -1.19062,1.9049999 z" />
      <path
         inkscape:connector-curvature="0"
         id="path917"
         style="font-style:normal;font-variant:normal;font-weight:normal;font-stretch:normal;font-size:13.22916603px;font-family:Cantarell;-inkscape-font-specification:'Cantarell, Normal';font-variant-ligatures:normal;font-variant-caps:normal;font-variant-numeric:normal;font-feature-settings:normal;text-align:start;writing-mode:lr-tb;text-anchor:start;vector-effect:none;fill:#000000;fill-opacity:1;stroke:none;stroke-width:0.51050711;stroke-linecap:butt;stroke-linejoin:miter;stroke-miterlimit:4;stroke-dasharray:none;stroke-dashoffset:0;stroke-opacity:1"
         d="m 655.18629,3.0665549 c 0.80698,0 1.49489,-0.2645833 2.01083,-0.7276041 l 0.25135,0.5953124 h 0.74084 v -4.1407289 c 0,-1.5213541 -0.89959,-2.3680208 -2.56646,-2.3680208 -0.83344,0 -1.73302,0.2248959 -2.42094,0.6085417 l 0.26458,0.7805208 c 0.66146,-0.2910417 1.32292,-0.4365625 1.94469,-0.4365625 1.13771,0 1.71979,0.47625 1.71979,1.4155208 v 0.42333327 c -2.8575,0.0264583 -4.10104,0.62177081 -4.10104,1.98437493 0,1.1377083 0.84667,1.8653124 2.15636,1.8653124 z M 654.08827,1.08218 c 0,-0.79374998 0.89958,-1.12447913 3.0427,-1.13770829 V 1.5055133 c -0.39687,0.396875 -0.97895,0.635 -1.64041,0.635 -0.84667,0 -1.40229,-0.4233333 -1.40229,-1.0583333 z" />
      <path
         inkscape:connector-curvature="0"
         id="path919"
         style="font-style:normal;font-variant:normal;font-weight:normal;font-stretch:normal;font-size:13.22916603px;font-family:Cantarell;-inkscape-font-specification:'Cantarell, Normal';font-variant-ligatures:normal;font-variant-caps:normal;font-variant-numeric:normal;font-feature-settings:normal;text-align:start;writing-mode:lr-tb;text-anchor:start;vector-effect:none;fill:#000000;fill-opacity:1;stroke:none;stroke-width:0.51050711;stroke-linecap:butt;stroke-linejoin:miter;stroke-miterlimit:4;stroke-dasharray:none;stroke-dashoffset:0;stroke-opacity:1"
         d="m 660.2758,5.8049923 h 1.05833 V 2.3918674 c 0.43656,0.4365625 1.0451,0.6746875 1.74625,0.6746875 1.77271,0 2.96333,-1.3758333 2.96333,-3.43958318 0,-1.91822912 -1.09802,-3.20145822 -2.73844,-3.20145822 -0.75406,0 -1.48166,0.2778125 -2.02406,0.7672917 l -0.26458,-0.635 h -0.74083 z m 2.75166,-8.4534371 c 1.19063,0 1.95792,0.9524999 1.95792,2.40770818 0,1.42874992 -0.70115,2.38124992 -1.85208,2.38124992 -0.78053,0 -1.45521,-0.4233333 -1.79917,-1.0980208 v -2.9765624 c 0.44979,-0.4497916 1.07156,-0.7143749 1.69333,-0.7143749 z" />
      <path
         inkscape:connector-curvature="0"
         id="path921"
         style="font-style:normal;font-variant:normal;font-weight:normal;font-stretch:normal;font-size:13.22916603px;font-family:Cantarell;-inkscape-font-specification:'Cantarell, Normal';font-variant-ligatures:normal;font-variant-caps:normal;font-variant-numeric:normal;font-feature-settings:normal;text-align:start;writing-mode:lr-tb;text-anchor:start;vector-effect:none;fill:#000000;fill-opacity:1;stroke:none;stroke-width:0.51050711;stroke-linecap:butt;stroke-linejoin:miter;stroke-miterlimit:4;stroke-dasharray:none;stroke-dashoffset:0;stroke-opacity:1"
         d="m 669.50066,3.0665549 c 0.80698,0 1.49489,-0.2645833 2.01083,-0.7276041 l 0.25136,0.5953124 h 0.74083 v -4.1407289 c 0,-1.5213541 -0.89958,-2.3680208 -2.56646,-2.3680208 -0.83344,0 -1.73302,0.2248959 -2.42094,0.6085417 l 0.26459,0.7805208 c 0.66146,-0.2910417 1.32291,-0.4365625 1.94468,-0.4365625 1.13771,0 1.7198,0.47625 1.7198,1.4155208 v 0.42333327 c -2.8575,0.0264583 -4.10105,0.62177081 -4.10105,1.98437493 0,1.1377083 0.84667,1.8653124 2.15636,1.8653124 z M 668.40264,1.08218 c 0,-0.79374998 0.89958,-1.12447913 3.04271,-1.13770829 V 1.5055133 c -0.39688,0.396875 -0.97896,0.635 -1.64042,0.635 -0.84667,0 -1.40229,-0.4233333 -1.40229,-1.0583333 z" />
      <path
         inkscape:connector-curvature="0"
         id="path923"
         style="font-style:normal;font-variant:normal;font-weight:normal;font-stretch:normal;font-size:13.22916603px;font-family:Cantarell;-inkscape-font-specification:'Cantarell, Normal';font-variant-ligatures:normal;font-variant-caps:normal;font-variant-numeric:normal;font-feature-settings:normal;text-align:start;writing-mode:lr-tb;text-anchor:start;vector-effect:none;fill:#000000;fill-opacity:1;stroke:none;stroke-width:0.51050711;stroke-linecap:butt;stroke-linejoin:miter;stroke-miterlimit:4;stroke-dasharray:none;stroke-dashoffset:0;stroke-opacity:1"
         d="m 674.59017,2.9342632 h 1.05833 v -4.9344789 c 0.48948,-0.4365625 1.07156,-0.6482291 1.69333,-0.6482291 1.03188,0 1.60073,0.5820833 1.60073,1.6139582 v 3.9687498 h 1.05834 v -4.1804164 c 0,-1.4155208 -0.93928,-2.3283333 -2.36803,-2.3283333 -0.70114,0 -1.40229,0.2248959 -1.98437,0.6746875 v -3.9422915 h -1.05833 z" />
      <path
         inkscape:connector-curvature="0"
         id="path925"
         style="font-style:normal;font-variant:normal;font-weight:normal;font-stretch:normal;font-size:13.22916603px;font-family:Cantarell;-inkscape-font-specification:'Cantarell, Normal';font-variant-ligatures:normal;font-variant-caps:normal;font-variant-numeric:normal;font-feature-settings:normal;text-align:start;writing-mode:lr-tb;text-anchor:start;vector-effect:none;fill:#000000;fill-opacity:1;stroke:none;stroke-width:0.51050711;stroke-linecap:butt;stroke-linejoin:miter;stroke-miterlimit:4;stroke-dasharray:none;stroke-dashoffset:0;stroke-opacity:1"
         d="m 682.67856,-4.9370906 c 0.47625,0 0.75407,-0.2778124 0.75407,-0.7540624 0,-0.47625 -0.27782,-0.7540625 -0.75407,-0.7540625 -0.47625,0 -0.75406,0.2778125 -0.75406,0.7540625 0,0.47625 0.27781,0.7540624 0.75406,0.7540624 z m -0.54239,7.8713538 h 1.05833 v -6.376458 h -1.05833 z" />
      <path
         inkscape:connector-curvature="0"
         id="path927"
         style="font-style:normal;font-variant:normal;font-weight:normal;font-stretch:normal;font-size:13.22916603px;font-family:Cantarell;-inkscape-font-specification:'Cantarell, Normal';font-variant-ligatures:normal;font-variant-caps:normal;font-variant-numeric:normal;font-feature-settings:normal;text-align:start;writing-mode:lr-tb;text-anchor:start;vector-effect:none;fill:#000000;fill-opacity:1;stroke:none;stroke-width:0.51050711;stroke-linecap:butt;stroke-linejoin:miter;stroke-miterlimit:4;stroke-dasharray:none;stroke-dashoffset:0;stroke-opacity:1"
         d="m 687.53243,3.0004091 c 0.43656,0 0.87312,-0.1058334 1.17739,-0.238125 L 688.4717,1.9949924 c -0.19844,0.092604 -0.48948,0.1455209 -0.71438,0.1455209 -0.66146,0 -1.09802,-0.4233333 -1.09802,-1.0583333 v -3.6380207 h 1.74625 v -0.8863541 h -1.74625 v -1.8653124 h -1.05833 v 1.8653124 h -0.8599 v 0.8863541 h 0.8599 v 3.7835415 c 0,1.0583333 0.76729,1.7727083 1.93146,1.7727083 z" />
    </g>
    <g
       id="text2556"
       style="font-style:normal;font-variant:normal;font-weight:normal;font-stretch:normal;font-size:162.44734192px;line-height:1.25;font-family:Cantarell;-inkscape-font-specification:'Cantarell, Normal';font-variant-ligatures:normal;font-variant-caps:normal;font-variant-numeric:normal;font-feature-settings:normal;text-align:start;letter-spacing:0px;word-spacing:0px;writing-mode:lr-tb;text-anchor:start;opacity:1;vector-effect:none;fill:url(#linearGradient2620);fill-opacity:1;stroke:none;stroke-width:6.2687645;stroke-linecap:butt;stroke-linejoin:miter;stroke-miterlimit:4;stroke-dasharray:none;stroke-dashoffset:0;stroke-opacity:1"
       aria-label="majapahit">
      <path
         inkscape:connector-curvature="0"
         id="path892"
         style="font-style:normal;font-variant:normal;font-weight:normal;font-stretch:normal;font-size:162.44734192px;font-family:Cantarell;-inkscape-font-specification:'Cantarell, Normal';font-variant-ligatures:normal;font-variant-caps:normal;font-variant-numeric:normal;font-feature-settings:normal;text-align:start;writing-mode:lr-tb;text-anchor:start;vector-effect:none;fill:url(#linearGradient934);fill-opacity:1;stroke:none;stroke-width:6.2687645;stroke-linecap:butt;stroke-linejoin:miter;stroke-miterlimit:4;stroke-dasharray:none;stroke-dashoffset:0;stroke-opacity:1"
         d="m 205.27427,248.04897 h 12.99578 v -61.24265 c 5.84811,-4.71098 12.83334,-7.31013 20.30592,-7.31013 12.50845,0 19.33124,7.14768 19.33124,19.81857 v 48.73421 h 12.99578 v -51.33336 c 0,-3.24895 -0.32489,-6.173 -1.13713,-8.93461 6.01055,-5.36076 13.48313,-8.28481 21.44305,-8.28481 12.50845,0 19.33123,7.14768 19.33123,19.81857 v 48.73421 h 12.99579 v -51.33336 c 0,-17.38187 -11.37131,-28.59074 -28.75318,-28.59074 -10.39663,0 -20.63081,4.22363 -28.59073,11.69621 -4.87342,-7.47258 -13.15823,-11.69621 -23.87976,-11.69621 -8.9346,0 -17.70676,3.0865 -25.01689,8.44727 l -2.92405,-6.82279 h -9.09705 z" />
      <path
         inkscape:connector-curvature="0"
         id="path894"
         style="font-style:normal;font-variant:normal;font-weight:normal;font-stretch:normal;font-size:162.44734192px;font-family:Cantarell;-inkscape-font-specification:'Cantarell, Normal';font-variant-ligatures:normal;font-variant-caps:normal;font-variant-numeric:normal;font-feature-settings:normal;text-align:start;writing-mode:lr-tb;text-anchor:start;vector-effect:none;fill:url(#linearGradient936);fill-opacity:1;stroke:none;stroke-width:6.2687645;stroke-linecap:butt;stroke-linejoin:miter;stroke-miterlimit:4;stroke-dasharray:none;stroke-dashoffset:0;stroke-opacity:1"
         d="m 369.95018,249.67344 c 9.90929,0 18.35655,-3.24895 24.692,-8.9346 l 3.0865,7.31013 h 9.09705 v -50.84602 c 0,-18.68145 -11.04642,-29.07808 -31.51478,-29.07808 -10.23419,0 -21.28061,2.76161 -29.72787,7.47258 l 3.24895,9.58439 c 8.12237,-3.57384 16.24473,-5.36076 23.87976,-5.36076 13.97047,0 21.11815,5.84811 21.11815,17.38187 v 5.19831 c -35.08862,0.3249 -50.35867,7.63503 -50.35867,24.3671 0,13.97048 10.39663,22.90508 26.47891,22.90508 z m -13.48312,-24.3671 c 0,-9.74684 11.04641,-13.80803 37.36288,-13.97047 v 19.16878 c -4.87342,4.87342 -12.0211,7.79747 -20.14347,7.79747 -10.39663,0 -17.21941,-5.19831 -17.21941,-12.99578 z" />
      <path
         inkscape:connector-curvature="0"
         id="path896"
         style="font-style:normal;font-variant:normal;font-weight:normal;font-stretch:normal;font-size:162.44734192px;font-family:Cantarell;-inkscape-font-specification:'Cantarell, Normal';font-variant-ligatures:normal;font-variant-caps:normal;font-variant-numeric:normal;font-feature-settings:normal;text-align:start;writing-mode:lr-tb;text-anchor:start;vector-effect:none;fill:url(#linearGradient938);fill-opacity:1;stroke:none;stroke-width:6.2687645;stroke-linecap:butt;stroke-linejoin:miter;stroke-miterlimit:4;stroke-dasharray:none;stroke-dashoffset:0;stroke-opacity:1"
         d="m 439.75685,151.3928 c 5.84811,0 9.2595,-3.4114 9.2595,-9.2595 0,-5.84811 -3.41139,-9.2595 -9.2595,-9.2595 -5.8481,0 -9.2595,3.41139 -9.2595,9.2595 0,5.8481 3.4114,9.2595 9.2595,9.2595 z m -16.89452,133.53171 c 14.78271,-6.49789 23.39242,-18.84389 23.39242,-33.13926 v -82.0359 h -12.99579 v 83.98527 c 0,9.09705 -5.84811,18.35655 -14.62026,23.39242 z" />
      <path
         inkscape:connector-curvature="0"
         id="path898"
         style="font-style:normal;font-variant:normal;font-weight:normal;font-stretch:normal;font-size:162.44734192px;font-family:Cantarell;-inkscape-font-specification:'Cantarell, Normal';font-variant-ligatures:normal;font-variant-caps:normal;font-variant-numeric:normal;font-feature-settings:normal;text-align:start;writing-mode:lr-tb;text-anchor:start;vector-effect:none;fill:url(#linearGradient940);fill-opacity:1;stroke:none;stroke-width:6.2687645;stroke-linecap:butt;stroke-linejoin:miter;stroke-miterlimit:4;stroke-dasharray:none;stroke-dashoffset:0;stroke-opacity:1"
         d="m 494.64122,249.67344 c 9.90929,0 18.35655,-3.24895 24.692,-8.9346 l 3.0865,7.31013 h 9.09705 v -50.84602 c 0,-18.68145 -11.04642,-29.07808 -31.51478,-29.07808 -10.23419,0 -21.2806,2.76161 -29.72787,7.47258 l 3.24895,9.58439 c 8.12237,-3.57384 16.24473,-5.36076 23.87976,-5.36076 13.97047,0 21.11815,5.84811 21.11815,17.38187 v 5.19831 c -35.08862,0.3249 -50.35867,7.63503 -50.35867,24.3671 0,13.97048 10.39663,22.90508 26.47891,22.90508 z m -13.48312,-24.3671 c 0,-9.74684 11.04641,-13.80803 37.36288,-13.97047 v 19.16878 c -4.87342,4.87342 -12.0211,7.79747 -20.14347,7.79747 -10.39663,0 -17.21941,-5.19831 -17.21941,-12.99578 z" />
      <path
         inkscape:connector-curvature="0"
         id="path900"
         style="font-style:normal;font-variant:normal;font-weight:normal;font-stretch:normal;font-size:162.44734192px;font-family:Cantarell;-inkscape-font-specification:'Cantarell, Normal';font-variant-ligatures:normal;font-variant-caps:normal;font-variant-numeric:normal;font-feature-settings:normal;text-align:start;writing-mode:lr-tb;text-anchor:start;vector-effect:none;fill:url(#linearGradient942);fill-opacity:1;stroke:none;stroke-width:6.2687645;stroke-linecap:butt;stroke-linejoin:miter;stroke-miterlimit:4;stroke-dasharray:none;stroke-dashoffset:0;stroke-opacity:1"
         d="m 557.13773,283.30004 h 12.99579 v -41.91142 c 5.36076,5.36077 12.83334,8.28482 21.44305,8.28482 21.76794,0 36.3882,-16.89452 36.3882,-42.23631 0,-23.55486 -13.48313,-39.31226 -33.6266,-39.31226 -9.2595,0 -18.1941,3.4114 -24.85444,9.42195 l -3.24895,-7.79747 h -9.09705 z m 33.78905,-103.80385 c 14.62026,0 24.04221,11.69621 24.04221,29.56541 0,17.54432 -8.60971,29.24052 -22.74263,29.24052 -9.5844,0 -17.86921,-5.19831 -22.09284,-13.48312 v -36.55066 c 5.52321,-5.52321 13.15823,-8.77215 20.79326,-8.77215 z" />
      <path
         inkscape:connector-curvature="0"
         id="path902"
         style="font-style:normal;font-variant:normal;font-weight:normal;font-stretch:normal;font-size:162.44734192px;font-family:Cantarell;-inkscape-font-specification:'Cantarell, Normal';font-variant-ligatures:normal;font-variant-caps:normal;font-variant-numeric:normal;font-feature-settings:normal;text-align:start;writing-mode:lr-tb;text-anchor:start;vector-effect:none;fill:url(#linearGradient944);fill-opacity:1;stroke:none;stroke-width:6.2687645;stroke-linecap:butt;stroke-linejoin:miter;stroke-miterlimit:4;stroke-dasharray:none;stroke-dashoffset:0;stroke-opacity:1"
         d="m 670.4143,249.67344 c 9.90928,0 18.35655,-3.24895 24.69199,-8.9346 l 3.0865,7.31013 h 9.09705 v -50.84602 c 0,-18.68145 -11.04642,-29.07808 -31.51478,-29.07808 -10.23418,0 -21.2806,2.76161 -29.72787,7.47258 l 3.24895,9.58439 c 8.12237,-3.57384 16.24474,-5.36076 23.87976,-5.36076 13.97047,0 21.11816,5.84811 21.11816,17.38187 v 5.19831 c -35.08863,0.3249 -50.35868,7.63503 -50.35868,24.3671 0,13.97048 10.39663,22.90508 26.47892,22.90508 z m -13.48313,-24.3671 c 0,-9.74684 11.04642,-13.80803 37.36289,-13.97047 v 19.16878 c -4.87343,4.87342 -12.02111,7.79747 -20.14348,7.79747 -10.39663,0 -17.21941,-5.19831 -17.21941,-12.99578 z" />
      <path
         inkscape:connector-curvature="0"
         id="path904"
         style="font-style:normal;font-variant:normal;font-weight:normal;font-stretch:normal;font-size:162.44734192px;font-family:Cantarell;-inkscape-font-specification:'Cantarell, Normal';font-variant-ligatures:normal;font-variant-caps:normal;font-variant-numeric:normal;font-feature-settings:normal;text-align:start;writing-mode:lr-tb;text-anchor:start;vector-effect:none;fill:url(#linearGradient946);fill-opacity:1;stroke:none;stroke-width:6.2687645;stroke-linecap:butt;stroke-linejoin:miter;stroke-miterlimit:4;stroke-dasharray:none;stroke-dashoffset:0;stroke-opacity:1"
         d="m 732.91086,248.04897 h 12.99579 v -60.59286 c 6.01055,-5.36077 13.15824,-7.95992 20.79326,-7.95992 12.67089,0 19.65613,7.14768 19.65613,19.81857 v 48.73421 h 12.99579 v -51.33336 c 0,-17.38187 -11.53376,-28.59074 -29.07808,-28.59074 -8.60971,0 -17.21942,2.76161 -24.3671,8.28482 v -48.40931 h -12.99579 z" />
      <path
         inkscape:connector-curvature="0"
         id="path906"
         style="font-style:normal;font-variant:normal;font-weight:normal;font-stretch:normal;font-size:162.44734192px;font-family:Cantarell;-inkscape-font-specification:'Cantarell, Normal';font-variant-ligatures:normal;font-variant-caps:normal;font-variant-numeric:normal;font-feature-settings:normal;text-align:start;writing-mode:lr-tb;text-anchor:start;vector-effect:none;fill:url(#linearGradient948);fill-opacity:1;stroke:none;stroke-width:6.2687645;stroke-linecap:butt;stroke-linejoin:miter;stroke-miterlimit:4;stroke-dasharray:none;stroke-dashoffset:0;stroke-opacity:1"
         d="m 832.23216,151.3928 c 5.84811,0 9.2595,-3.4114 9.2595,-9.2595 0,-5.84811 -3.41139,-9.2595 -9.2595,-9.2595 -5.8481,0 -9.25949,3.41139 -9.25949,9.2595 0,5.8481 3.41139,9.2595 9.25949,9.2595 z m -6.66034,96.65617 h 12.99579 v -78.29962 h -12.99579 z" />
      <path
         inkscape:connector-curvature="0"
         id="path908"
         style="font-style:normal;font-variant:normal;font-weight:normal;font-stretch:normal;font-size:162.44734192px;font-family:Cantarell;-inkscape-font-specification:'Cantarell, Normal';font-variant-ligatures:normal;font-variant-caps:normal;font-variant-numeric:normal;font-feature-settings:normal;text-align:start;writing-mode:lr-tb;text-anchor:start;vector-effect:none;fill:url(#linearGradient950);fill-opacity:1;stroke:none;stroke-width:6.2687645;stroke-linecap:butt;stroke-linejoin:miter;stroke-miterlimit:4;stroke-dasharray:none;stroke-dashoffset:0;stroke-opacity:1"
         d="m 891.83511,248.8612 c 5.36076,0 10.72153,-1.29958 14.45782,-2.92405 l -2.92406,-9.42195 c -2.43671,1.13714 -6.01055,1.78692 -8.77215,1.78692 -8.12237,0 -13.48313,-5.19831 -13.48313,-12.99578 v -44.67302 h 21.44305 V 169.74935 H 881.11359 V 146.84427 H 868.1178 v 22.90508 h -10.55908 v 10.88397 h 10.55908 v 46.45994 c 0,12.99579 9.42195,21.76794 23.71731,21.76794 z" />
    </g>
  </g>
</svg>
